<svg xmlns="http://www.w3.org/2000/svg" viewBox="0 0 750 500"><g id="freepik--background-complete--inject-104"><rect x="487.75" y="52.3" width="133.02" height="203.96" style="fill:#dbdbdb"></rect><rect x="495" y="60.47" width="56.17" height="90.72" style="fill:#fff"></rect><rect x="557.35" y="60.47" width="56.17" height="90.72" style="fill:#fff"></rect><rect x="495" y="157.37" width="56.17" height="90.72" style="fill:#fff"></rect><rect x="557.35" y="157.37" width="56.17" height="90.72" style="fill:#fff"></rect><rect x="487.75" y="52.3" width="31.51" height="291.8" style="fill:#ebebeb"></rect><polygon points="513.28 66.17 513.52 97.72 513.61 129.27 513.78 192.37 513.61 255.47 513.52 287.02 513.28 318.57 513.04 287.02 512.95 255.47 512.78 192.37 512.95 129.27 513.04 97.72 513.28 66.17" style="fill:#fff"></polygon><polygon points="498.81 73.49 499.06 101.66 499.2 129.83 499.31 186.17 499.2 242.52 499.06 270.69 498.81 298.86 498.57 270.69 498.43 242.52 498.31 186.17 498.43 129.83 498.57 101.66 498.81 73.49" style="fill:#fff"></polygon><polygon points="506.05 80.14 506.29 113.13 506.38 146.11 506.55 212.09 506.38 278.06 506.29 311.05 506.05 344.03 505.8 311.05 505.71 278.06 505.55 212.09 505.72 146.11 505.8 113.13 506.05 80.14" style="fill:#fff"></polygon><polygon points="493.43 67.84 493.68 102.36 493.76 136.88 493.93 205.93 493.77 274.98 493.68 309.51 493.43 344.03 493.19 309.51 493.1 274.98 492.93 205.93 493.1 136.88 493.19 102.36 493.43 67.84" style="fill:#fff"></polygon><rect x="589.26" y="52.3" width="31.51" height="291.8" transform="translate(1210.02 396.4) rotate(180)" style="fill:#ebebeb"></rect><polygon points="595.23 66.17 595.48 97.72 595.56 129.27 595.73 192.37 595.57 255.47 595.48 287.02 595.23 318.57 594.99 287.02 594.9 255.47 594.73 192.37 594.9 129.27 594.99 97.72 595.23 66.17" style="fill:#fff"></polygon><polygon points="609.7 73.49 609.94 101.66 610.08 129.83 610.2 186.17 610.08 242.52 609.94 270.69 609.7 298.86 609.46 270.69 609.32 242.52 609.2 186.17 609.32 129.83 609.46 101.66 609.7 73.49" style="fill:#fff"></polygon><polygon points="602.47 80.14 602.71 113.13 602.8 146.11 602.97 212.09 602.8 278.06 602.71 311.05 602.47 344.03 602.22 311.05 602.13 278.06 601.97 212.09 602.13 146.11 602.22 113.13 602.47 80.14" style="fill:#fff"></polygon><polygon points="615.08 67.84 615.32 102.36 615.41 136.88 615.58 205.93 615.41 274.98 615.32 309.51 615.08 344.03 614.84 309.51 614.75 274.98 614.58 205.93 614.75 136.88 614.84 102.36 615.08 67.84" style="fill:#fff"></polygon><rect x="129.24" y="52.3" width="133.02" height="203.96" style="fill:#dbdbdb"></rect><rect x="136.48" y="60.47" width="56.17" height="90.72" style="fill:#fff"></rect><rect x="198.83" y="60.47" width="56.17" height="90.72" style="fill:#fff"></rect><rect x="136.48" y="157.37" width="56.17" height="90.72" style="fill:#fff"></rect><rect x="198.83" y="157.37" width="56.17" height="90.72" style="fill:#fff"></rect><rect x="129.24" y="52.3" width="31.51" height="291.8" style="fill:#ebebeb"></rect><polygon points="154.77 66.17 155.01 97.72 155.1 129.27 155.27 192.37 155.1 255.47 155.01 287.02 154.77 318.57 154.52 287.02 154.44 255.47 154.27 192.37 154.44 129.27 154.52 97.72 154.77 66.17" style="fill:#fff"></polygon><polygon points="140.3 73.49 140.54 101.66 140.68 129.83 140.8 186.17 140.69 242.52 140.54 270.69 140.3 298.86 140.06 270.69 139.92 242.52 139.8 186.17 139.92 129.83 140.06 101.66 140.3 73.49" style="fill:#fff"></polygon><polygon points="147.53 80.14 147.78 113.13 147.87 146.11 148.03 212.09 147.87 278.06 147.78 311.05 147.53 344.03 147.29 311.05 147.2 278.06 147.03 212.09 147.2 146.11 147.29 113.13 147.53 80.14" style="fill:#fff"></polygon><polygon points="134.92 67.84 135.16 102.36 135.25 136.88 135.42 205.93 135.25 274.98 135.16 309.51 134.92 344.03 134.68 309.51 134.59 274.98 134.42 205.93 134.59 136.88 134.68 102.36 134.92 67.84" style="fill:#fff"></polygon><rect x="230.75" y="52.3" width="31.51" height="291.8" transform="translate(493 396.4) rotate(180)" style="fill:#ebebeb"></rect><polygon points="236.72 66.17 236.96 97.72 237.05 129.27 237.22 192.37 237.05 255.47 236.96 287.02 236.72 318.57 236.47 287.02 236.39 255.47 236.22 192.37 236.39 129.27 236.48 97.72 236.72 66.17" style="fill:#fff"></polygon><polygon points="251.19 73.49 251.43 101.66 251.57 129.83 251.69 186.17 251.57 242.52 251.43 270.69 251.19 298.86 250.94 270.69 250.8 242.52 250.69 186.17 250.8 129.83 250.94 101.66 251.19 73.49" style="fill:#fff"></polygon><polygon points="243.95 80.14 244.2 113.13 244.28 146.11 244.45 212.09 244.28 278.06 244.2 311.05 243.95 344.03 243.71 311.05 243.62 278.06 243.45 212.09 243.62 146.11 243.71 113.13 243.95 80.14" style="fill:#fff"></polygon><polygon points="256.57 67.84 256.81 102.36 256.9 136.88 257.06 205.93 256.9 274.98 256.81 309.51 256.57 344.03 256.32 309.51 256.23 274.98 256.07 205.93 256.24 136.88 256.32 102.36 256.57 67.84" style="fill:#fff"></polygon><rect x="80.56" y="302.36" width="26.48" height="11.19" style="fill:#ebebeb"></rect><rect x="65.79" y="316.47" width="26.48" height="11.19" style="fill:#ebebeb"></rect><rect x="386.58" y="151.47" width="26.48" height="11.19" style="fill:#ebebeb"></rect><rect x="371.81" y="165.58" width="26.48" height="11.19" style="fill:#ebebeb"></rect><rect x="357.09" y="151.47" width="26.48" height="11.19" style="fill:#ebebeb"></rect><rect x="657.73" y="316.47" width="26.48" height="11.19" style="fill:#ebebeb"></rect><rect x="642.96" y="63.3" width="26.48" height="11.19" style="fill:#ebebeb"></rect><rect x="657.73" y="77.41" width="26.48" height="11.19" style="fill:#ebebeb"></rect><rect x="80.56" y="63.3" width="26.48" height="11.19" style="fill:#ebebeb"></rect><rect x="304.15" width="1" height="83.77" style="fill:#c7c7c7"></rect><polygon points="333.74 111.81 331.4 116.95 277.9 116.95 275.57 111.81 298.34 96.04 310.96 96.04 333.74 111.81" style="fill:#ebebeb"></polygon><polygon points="312.54 80.85 310.96 96.04 298.34 96.04 296.76 80.85 312.54 80.85" style="fill:#dbdbdb"></polygon><polygon points="333.74 111.81 331.4 116.95 277.9 116.95 275.56 111.81 333.74 111.81" style="fill:#dbdbdb"></polygon><rect x="374.5" width="1" height="67.18" style="fill:#c7c7c7"></rect><polygon points="404.09 95.21 401.75 100.36 348.25 100.36 345.91 95.21 368.69 79.45 381.31 79.45 404.09 95.21" style="fill:#ebebeb"></polygon><polygon points="382.89 64.26 381.31 79.45 368.69 79.45 367.11 64.26 382.89 64.26" style="fill:#dbdbdb"></polygon><polygon points="404.09 95.22 401.75 100.36 348.24 100.36 345.91 95.22 404.09 95.22" style="fill:#dbdbdb"></polygon><rect x="444.85" width="1" height="50.58" style="fill:#c7c7c7"></rect><polygon points="474.44 78.62 472.1 83.77 418.6 83.77 416.26 78.62 439.04 62.86 451.66 62.86 474.44 78.62" style="fill:#ebebeb"></polygon><polygon points="453.24 47.67 451.66 62.86 439.04 62.86 437.46 47.67 453.24 47.67" style="fill:#dbdbdb"></polygon><polygon points="474.43 78.62 472.1 83.77 418.59 83.77 416.26 78.62 474.43 78.62" style="fill:#dbdbdb"></polygon></g><g id="freepik--Shadow--inject-104"><ellipse cx="375" cy="432.66" rx="307.44" ry="19.33" style="fill:#ebebeb"></ellipse></g><g id="freepik--Plant--inject-104"><path d="M667,266.38a41.14,41.14,0,0,0,.8,15.82,44.1,44.1,0,0,0,2.42,7c1.26,2.89,2.58,5.72,2.26,8.89-.31.2.74.17.78-.14,8.46-4.82,19.31-5.7,25.83-13.58,3.08-3.73,4.64-8.46,5.37-13.19.81-5.15,1-10.85-.3-15.92-1.12-4.3-3.63-8.44-7.66-10.54s-9.62-2-14-.63C673,247,668.29,257.23,667,266.38Z" style="fill:#7E57C2"></path><path d="M662.6,329c1.16-3.85,2.31-7.7,3.5-11.54,2.32-7.53,4.73-15,7.41-22.43q2.4-6.65,5.06-13.18a78.73,78.73,0,0,0-1-8.18c-.71-3.28-1.73-6.45-2.69-9.66-.06-.2.26-.3.34-.11,1.9,4.42,4.38,10.08,4.44,15.32q3.11-7.38,6.65-14.56a61.51,61.51,0,0,0-.37-12.12.15.15,0,0,1,.29-.06,43.47,43.47,0,0,1,.83,10.7q2.72-5.38,5.77-10.63c.18-.31.62,0,.46.32-3.18,6.12-6.13,12.38-8.9,18.71a40.68,40.68,0,0,1,13.27-7.68c.21-.08.37.23.15.32a48.36,48.36,0,0,0-14.35,9.5q-3,7-5.69,14c5.3-5.19,12.54-8.61,19.55-10.44.24-.06.31.3.08.37-8.11,2.44-14.42,7-20.59,12.57-.71,1.9-1.42,3.81-2.11,5.72q-3.91,10.89-7.46,21.89-1.71,5.28-3.36,10.57c-1.19,3.79-2.11,7.8-3.65,11.47-.15.35-.78.27-.7-.15A111.64,111.64,0,0,1,662.6,329Z" style="fill:#263238"></path><path d="M676.64,259a21,21,0,0,1,3.05,7.6c0,.07-.1.11-.12,0a63.63,63.63,0,0,0-3.31-7.46C676.14,258.9,676.5,258.75,676.64,259Z" style="fill:#263238"></path><path d="M691.74,276.6a22.5,22.5,0,0,1,7.59-2.56c.07,0,.12.1,0,.13-1.23.5-2.51.86-3.74,1.33s-2.46,1.06-3.71,1.49A.22.22,0,0,1,691.74,276.6Z" style="fill:#263238"></path><path d="M696,255.39a15.09,15.09,0,0,1,2.45-1.51.13.13,0,0,1,.14.22,15.53,15.53,0,0,1-2.41,1.56C696,255.75,695.84,255.49,696,255.39Z" style="fill:#263238"></path><path d="M638.42,295.12c6.09,1.81,12.22,3.48,18.31,5.27.53.16,10.84-19.58,7.11-29.76A33.22,33.22,0,0,0,643.13,251c-4.36-1.47-9.71-2.72-14.31-1.7-4.08.9-7,4.25-8.3,8.09-1.81,5.23-1.21,11.46-.22,16.8a29.21,29.21,0,0,0,6,13.7C629.53,291.71,633.67,293.71,638.42,295.12Z" style="fill:#7E57C2"></path><path d="M629.58,276.36a81.9,81.9,0,0,0,11.95,4.7,50.53,50.53,0,0,1,8,2.89c-2.57-5.74-5.4-11.36-8.4-16.93-3.94-1.14-8.08-2.91-11.05-5.7-.16-.15.05-.38.23-.26,3.24,2.3,6.83,3.68,10.42,5.23q-1.22-2.25-2.46-4.49c-.24-.41.34-.83.61-.42a129.11,129.11,0,0,1,8.67,14.54,66.62,66.62,0,0,0,.62-13.33.09.09,0,0,1,.18,0,44.47,44.47,0,0,1-.15,14.65c2.14,4.26,4.08,8.63,5.83,13.06.7-2.66,1.6-5.28,2.21-8a36.77,36.77,0,0,0,.87-11.73c0-.12.16-.12.18,0a41.38,41.38,0,0,1-2.56,21.53c1,2.67,2,5.34,2.88,8a159.78,159.78,0,0,1,8.09,42.29.26.26,0,0,1-.51,0,209.43,209.43,0,0,0-9.09-41.79c-1.77-5.32-3.8-10.48-6-15.54-3.6-1.06-7.19-2.51-10.72-3.73a33.85,33.85,0,0,1-9.89-4.85A.12.12,0,0,1,629.58,276.36Z" style="fill:#263238"></path><path d="M623.9,270.62c3.72,1.33,7.26,3.18,11,4.53.18.06.07.34-.1.3-3.94-.81-7.85-2-11-4.62C623.63,270.73,623.77,270.57,623.9,270.62Z" style="fill:#263238"></path><path d="M654.34,262.58c-.05-.2.24-.31.3-.11,1,3.44,1.73,7.08.73,10.59,0,.14-.25.15-.26,0C654.93,269.51,655.13,266.07,654.34,262.58Z" style="fill:#263238"></path><path d="M638.93,254.64a9.09,9.09,0,0,1,1.62,5.84c0,.13-.22.21-.25,0-.46-2-1.21-3.75-1.82-5.66A.26.26,0,0,1,638.93,254.64Z" style="fill:#263238"></path><path d="M710.92,303.83c-1.79,5.67-6,13.51-12.76,13.57-4.36,0-8.75-.47-13.12-.53-4.68-.08-9.37-.07-14,.21-.39,0,.56-14,11.8-20.84,3.15-1.92,7-2.52,10.58-3.3a49.15,49.15,0,0,1,12.5-1.3c2.58.1,4.73.65,5.65,3.3S711.78,301.13,710.92,303.83Z" style="fill:#7E57C2"></path><path d="M706.08,296.73c-2.73.71-5.49,1.51-8.23,2.38a29.46,29.46,0,0,1,2.26-2.21c1.18-1,2.48-1.76,3.74-2.62.11-.07,0-.27-.09-.22a15.34,15.34,0,0,0-6.63,5.28c-3.42,1.1-6.81,2.32-10.07,3.66a38.22,38.22,0,0,0-6.44,3.39,26.34,26.34,0,0,1,2.33-4.06c1.49-1.93,3.51-3,5.47-4.38a.18.18,0,0,0-.18-.3,16,16,0,0,0-8.77,9.51,37.76,37.76,0,0,0-6.38,5.79c-7.44,8.45-13.3,19.7-13.32,31.17,0,.28.44.35.49.07a63.56,63.56,0,0,1,14.19-30.48c.53-.62,1.08-1.21,1.64-1.79a52.36,52.36,0,0,1,6.15-.45c2.39,0,4.76.35,7.15.54,3.92.32,8.27.37,11.81-1.61a.16.16,0,0,0-.13-.29c-7.89,2.87-16.17-.77-24.09.94a37.11,37.11,0,0,1,11.67-7.53l.73-.29c5.07.61,10.42,1.93,15.35.29.15,0,.09-.28-.06-.24-4.77,1.19-9.34-.3-14-.54,5.12-2,10.35-3.59,15.49-5.57C706.54,297,706.55,296.61,706.08,296.73Z" style="fill:#263238"></path><path d="M708.32,301.72a67.68,67.68,0,0,1-7.38.56c-.05,0-.07.09,0,.1a15.28,15.28,0,0,0,7.44-.47A.1.1,0,0,0,708.32,301.72Z" style="fill:#263238"></path><path d="M691.66,296.86a12,12,0,0,0-3.65,2.53c-.13.12,0,.35.19.25.61-.46,1.25-.88,1.89-1.29a16.25,16.25,0,0,0,1.78-1.13A.22.22,0,0,0,691.66,296.86Z" style="fill:#263238"></path><path d="M652,315.12c.08.18-.19.36-.29.16h0a.27.27,0,0,1-.18.12,112.65,112.65,0,0,1-13.73,2.39c-3.72.33-8,.54-11.26-1.62-4.41-2.92-7.32-10.74-4.93-15.71,2.82-5.9,11.32-2.7,15.59-.6A31.27,31.27,0,0,1,652,315.12Z" style="fill:#7E57C2"></path><path d="M655.25,317.84A44,44,0,0,0,647,311.6a28,28,0,0,0-8.31-8.48c-.17-.11-.3.14-.16.26a37.6,37.6,0,0,1,7,7.37,77,77,0,0,0-10.29-4.68,13.72,13.72,0,0,0-5.53-5.54s-.1,0,0,.08a22.75,22.75,0,0,1,5,5.24c-2.09-.78-4.2-1.51-6.31-2.21-.2-.06-.27.23-.09.3,3.76,1.46,7.6,3,11.33,4.8a43.55,43.55,0,0,1-13.72,0c-.12,0-.18.16,0,.19a27,27,0,0,0,14.55.22,68.45,68.45,0,0,1,6.9,3.87,17.34,17.34,0,0,0-5.58.45,42,42,0,0,1-9.8,1.11c-.12,0-.16.2,0,.22,5.69,1,11.06-1.6,16.7-.93a43.52,43.52,0,0,1,5.87,4.79A44.42,44.42,0,0,1,663,330.7c2.37,4.83,3.66,9.95,5.57,14.94a.18.18,0,0,0,.35-.1C667.31,335.7,662.41,324.86,655.25,317.84Z" style="fill:#263238"></path><path d="M638.1,304.35a6.47,6.47,0,0,0-1.46-1.76,5.46,5.46,0,0,0-1.68-1.26c-.05,0-.08.06-.05.1.47.53,1.11.91,1.62,1.42s.92,1.11,1.44,1.61C638,304.53,638.14,304.44,638.1,304.35Z" style="fill:#263238"></path><path d="M628.72,307.41c-.84-.21-1.73-.2-2.59-.37a24.19,24.19,0,0,1-2.51-.76.1.1,0,0,0-.08.19,8.32,8.32,0,0,0,5.18,1.2C628.86,307.65,628.85,307.44,628.72,307.41Z" style="fill:#263238"></path><polygon points="678.68 333.42 677.93 341.89 675.4 370.51 652.99 370.51 649.82 341.89 648.89 333.42 678.68 333.42" style="fill:#455a64"></polygon><polygon points="678.68 333.42 677.93 341.89 649.82 341.89 648.89 333.42 678.68 333.42" style="fill:#263238"></polygon><rect x="646.67" y="331.11" width="34.23" height="6.88" style="fill:#455a64"></rect></g><g id="freepik--Floor--inject-104"><polygon points="34.32 370.61 119.49 370.37 204.66 370.28 375 370.11 545.34 370.28 630.51 370.37 715.68 370.61 630.51 370.86 545.34 370.94 375 371.11 204.66 370.94 119.49 370.85 34.32 370.61" style="fill:#263238"></polygon></g><g id="freepik--character-2--inject-104"><path d="M650,356.48l15.71,29.59c1.91,6.12,3.46,11.52,4,14.39a.09.09,0,0,1,0,.05,4.47,4.47,0,0,1,.14,2l0,0C668.36,404.39,619.87,421,618,421s-2.07-5.36-.7-7.51,17.09-16.82,17.09-16.82l-16.93-29.13Z" style="fill:#d3766a"></path><path d="M618,421c1.88,0,50.37-16.65,51.81-18.45l0,0a4.64,4.64,0,0,0-.14-2s0,0,0,0c-.55-2.87-2.11-8.28-4-14.4a38.06,38.06,0,0,0-3-5.71l-31.78,10.71,3.52,5.64s-15.71,14.67-17.09,16.82S616.1,421.06,618,421Z" style="fill:#ebebeb"></path><path d="M618,421c1.89,0,50.37-16.64,51.81-18.45.56-.68-1.45-7.88-4.13-16.52l-.09-.27-31.4,10.38.2.53s-15.71,14.67-17.09,16.82S616.1,421.06,618,421Z" style="fill:#7E57C2"></path><path d="M617.89,419c8.11-3,41.08-14.36,49.31-16.71.07,0,.09,0,0,.05-8,3.15-41,14.24-49.28,16.8C617.76,419.16,617.72,419,617.89,419Z" style="fill:#263238"></path><path d="M631.78,397.71c3-1.71,7.12-2.56,10.36-1.12.12.06,0,.24-.07.24a47.56,47.56,0,0,0-10.14,1.28A.22.22,0,0,1,631.78,397.71Z" style="fill:#263238"></path><path d="M629.94,399.9c3-1.7,7.11-2.56,10.36-1.11.12.06,0,.23-.07.24a48.19,48.19,0,0,0-10.14,1.27A.22.22,0,0,1,629.94,399.9Z" style="fill:#263238"></path><path d="M628.1,402.1c3-1.71,7.11-2.56,10.36-1.11.12.05,0,.23-.08.23a48.2,48.2,0,0,0-10.13,1.28A.22.22,0,0,1,628.1,402.1Z" style="fill:#263238"></path><path d="M618,421c.77,0,9.33-2.79,19.29-6.2l-6.1-15.12c-4.67,4.41-12.91,12.28-13.89,13.81C615.93,415.67,616.1,421.06,618,421Z" style="opacity:0.1"></path><path d="M660,377.13l-31.1,9.74s-37.48-60.18-36.72-75.8c1-21.57,26.35-87.8,26.35-87.8h30.28s-20.1,71.62-20.36,83.67C628.35,313.25,660,377.13,660,377.13Z" style="fill:#d3766a"></path><path d="M618.56,223.27h30.28l-19.47,81.54-37-3.65S605.85,250.72,618.56,223.27Z" style="fill:#37474f"></path><path d="M596.67,293.88c2.1,0,20.13,1.56,33.22,3.68.09,0,.06.14,0,.13-4.33-.12-30.82-3.1-33.2-3.66C596.59,294,596.58,293.88,596.67,293.88Z" style="fill:#263238"></path><path d="M621.64,223.24v0c.13.62,7.68,30.47,8.62,31s-27.43,39-30.82,57.81c-2.16,12-5.64,81.91-5.64,81.91H627s5.2-59.28,6.39-78.93c.46-7.62,30.16-40.34,32.6-65.5.72-7.42-5.29-26.36-5.29-26.36Z" style="fill:#d3766a"></path><path d="M617.36,274.83a206.94,206.94,0,0,0-11.69,20.41c-1.73,3.36-3.6,6.73-5,10.25a38,38,0,0,0-2.18,10.67c-.39,4.36-.67,8.76-.76,13.15,0,.1.17.13.19,0,.59-3.84,1-7.71,1.38-11.58a48,48,0,0,1,2-10.76,42.26,42.26,0,0,1,2.31-5.14q1.3-2.6,2.63-5.18,2.63-5.07,5.32-10.08,3.1-5.76,6-11.64A.13.13,0,0,0,617.36,274.83Z" style="fill:#263238"></path><path d="M633.19,314.22c-1.15,9.09-1.9,18.24-2.67,27.37s-1.54,18.3-2.18,27.46c-.37,5.16-.52,11.06-.72,16.24,0,.15.24.18.26,0,1.12-9.1,1.68-19,2.46-28.1s1.4-18.31,2.08-27.46c.38-5.17.72-10.34.9-15.52C633.32,314.16,633.2,314.15,633.19,314.22Z" style="fill:#263238"></path><path d="M621.64,223.24c-.79-1.42,3.05,22,8,30.88.25.44-25.75,41-27.42,44.75L636.68,312s30.12-47.11,30.84-61.45-6.79-27.29-6.79-27.29Z" style="fill:#37474f"></path><path d="M607.86,292.93c2,.49,19.12,6.47,31.28,11.75a.07.07,0,0,1,0,.13c-4.17-1.2-29.11-10.6-31.27-11.73C607.75,293,607.76,292.91,607.86,292.93Z" style="fill:#263238"></path><path d="M625.52,252.2a68.27,68.27,0,0,1,10.72,5,.12.12,0,0,1-.1.22c-3.61-1.55-7.29-3-10.81-4.78A.24.24,0,0,1,625.52,252.2Z" style="fill:#263238"></path><path d="M624.43,227.47c0-.13.23-.16.23,0a120.66,120.66,0,0,0,.61,12.07c.17,1.86,1.66,12.14,4.89,11.39.54-.13.81-.66.9-1.47a13.21,13.21,0,0,0-.43-3.16q-.54-3.22-.83-6.48a59.53,59.53,0,0,1,.13-12.16.11.11,0,1,1,.21,0,110.9,110.9,0,0,0,1,16.79c.41,2.67,1.75,6.7-1,7.11s-4.7-6.33-5-8.17A61.89,61.89,0,0,1,624.43,227.47Z" style="fill:#263238"></path><path d="M630.07,251.18a17.39,17.39,0,0,1,.73,2.14,5,5,0,0,1,.3,1.75c0,.11-.16.12-.22,0a5.91,5.91,0,0,1-.75-1.7c-.25-.66-.51-1.31-.73-2A.36.36,0,0,1,630.07,251.18Z" style="fill:#263238"></path><path d="M648.58,233.05c0-.07.13-.05.14,0,.1,3.12,0,6.33,1.21,9.28a12.71,12.71,0,0,0,5.78,6,45.79,45.79,0,0,0,4.45,2.18c.1,0,.06.22-.06.18a24.32,24.32,0,0,1-8.18-3.82,10.66,10.66,0,0,1-3.8-8.23A28,28,0,0,1,648.58,233.05Z" style="fill:#263238"></path><path d="M629.46,254.39c-1.89,2.76-4.38,6.68-6.17,9.5s-3.57,5.64-5.35,8.46c-3.51,5.56-6.94,11.18-10.41,16.77-2,3.18-3.9,6.4-5.73,9.66a.29.29,0,0,0,.18.43l2.65.73a.08.08,0,0,0,.06-.14l-2.2-1c3.69-5.42,7.1-11,10.55-16.61S620,271,623.38,265.37c1.94-3.21,4.4-7.62,6.23-10.89A.09.09,0,1,0,629.46,254.39Z" style="fill:#263238"></path><path d="M628.67,370.24s-2.31,33.5-2.31,33.53c-.19,6.41-.47,12-.89,14.91v.05a4.48,4.48,0,0,1-.54,2s0,0,0,0c-1.94,1.24-53.2,1.21-55,.61s-.21-5.75,1.78-7.33,21.63-10.36,21.63-10.36L595,370.17Z" style="fill:#d3766a"></path><path d="M626.84,396.88s-.48,6.86-.48,6.89c-.19,6.41-.47,12-.89,14.91v.05a8.27,8.27,0,0,1-.54,2s0,0,0,0c-1.94,1.24-53.2,1.21-55,.61s-.21-5.75,1.78-7.33,21.63-10.36,21.63-10.36l.36-7Z" style="fill:#ebebeb"></path><path d="M569.9,421.34c1.79.6,53.05.63,55-.61.75-.46,1.19-7.92,1.46-17v-.29l-33.06-.39v.57s-19.63,8.76-21.63,10.35S568.11,420.74,569.9,421.34Z" style="fill:#7E57C2"></path><path d="M570.48,419.35c8.64-.21,43.51-.23,52.07.23.07,0,.07.05,0,.05-8.56.39-43.43.13-52.07-.14C570.3,419.49,570.3,419.36,570.48,419.35Z" style="fill:#263238"></path><path d="M590.53,403.75c3.4-.63,7.56-.1,10.15,2.32.11.09,0,.24-.14.2a47.94,47.94,0,0,0-10-2.09A.22.22,0,0,1,590.53,403.75Z" style="fill:#263238"></path><path d="M588.07,405.23c3.4-.63,7.56-.11,10.16,2.32.1.09,0,.23-.15.2a47.85,47.85,0,0,0-10-2.09A.22.22,0,0,1,588.07,405.23Z" style="fill:#263238"></path><path d="M585.62,406.71c3.4-.63,7.56-.11,10.15,2.32.1.09,0,.23-.14.2a47.94,47.94,0,0,0-10-2.09A.22.22,0,0,1,585.62,406.71Z" style="fill:#263238"></path><path d="M626.12,185.81c-5.3,15.9-14,32.18-16,34.88-6.72,8.85-36.47,5.41-42.91,3.9-2.66-.63-.4-22.68,2.43-23.38,2-.48,27,5.93,28,4.5.74-1,12.44-13.44,18.76-21.26C625.35,173.41,627.88,180.51,626.12,185.81Z" style="fill:#d3766a"></path><path d="M553.28,223.7c5.08,1.7,16.85,1.12,19.63-.11s1.78-19.83-.72-21.7-19.39-7.73-24.53-5.84S548,221.93,553.28,223.7Z" style="fill:#d3766a"></path><rect x="550.6" y="186.81" width="5.25" height="32.46" transform="translate(-35.91 217.23) rotate(-21.53)" style="fill:#7E57C2"></rect><rect x="550.6" y="186.81" width="5.25" height="32.46" transform="translate(-35.91 217.23) rotate(-21.53)" style="opacity:0.2"></rect><path d="M559.44,178c-.28,6.52-7.14,9.13-8,13.4l-4.88,1.93c-3.51-2.56-10.31.22-15-4.35s-12.55-26.87,3.06-33S559.73,171.5,559.44,178Z" style="fill:#37474f"></path><path d="M558.37,178.44c-.19,6.49-6.8,9-7.55,13.23l-4.24,1.68c-3.43-2.59-10.44.28-15-4.33s-12.49-26.9,2.54-32.83S558.57,172,558.37,178.44Z" style="fill:#455a64"></path><path d="M556.15,194.74c1.84,2.16-1.77,3.09-1.77,3.09s5.51-.08,6.55,2.89-3.41,3.82-3.73,3.9c.29,0,5.36,0,6.09,3.14s-3.82,3.42-4.12,3.44c.28.08,3.91,1.26,3.93,3.74,0,4.25-9.34,1.48-12.29,3.25,0,0,2.43,5.34,2.47,5.51,0,0-9-2.45-11.13-6.57a3,3,0,0,1,.66-3.66s-3-.47-3.63-2.88c-.33-1.24,1.36-2.87,1.36-2.87a3.74,3.74,0,0,1-2.82-2.66c-.36-1.74,1.39-3.11,1.39-3.11s-2.06-1.51-1.85-3.41C537.68,194.71,552.21,190.1,556.15,194.74Z" style="fill:#d3766a"></path><path d="M539.36,201.69c-.05,0-.09,0,0-.07a26.44,26.44,0,0,1,15.25-3.86c.17,0,.22.29,0,.32A54.13,54.13,0,0,0,539.36,201.69Z" style="fill:#263238"></path><path d="M540.46,207.71a.05.05,0,0,1,0-.1,24.78,24.78,0,0,1,16.9-3.18c.2,0,.34.28.1.25C553.44,204.19,545,205.82,540.46,207.71Z" style="fill:#263238"></path><path d="M559.55,211.42c-5.71-.91-11.13.09-16.56,1.93-.07,0-.1-.08,0-.12,2.41-1.62,6-2.43,8.84-2.82a15.27,15.27,0,0,1,7.81.81C559.68,211.26,559.68,211.44,559.55,211.42Z" style="fill:#263238"></path><path d="M554.38,197.83a18.11,18.11,0,0,1,3.13.53,5.82,5.82,0,0,1,2.69,1.42,1.9,1.9,0,0,1,.54,1.26,2.78,2.78,0,0,1-.33,1.37,3.36,3.36,0,0,1-2.31,1.52l-2.28.47,2.3.35a9.76,9.76,0,0,1,3,.93,3.42,3.42,0,0,1,1.87,2.07,2,2,0,0,1-.89,2.28,5.89,5.89,0,0,1-2.87.7l-2.76.07,2.62.84a8.86,8.86,0,0,1,2.07,1,3.64,3.64,0,0,1,1.45,1.55,1.75,1.75,0,0,1-.25,1.83,3.88,3.88,0,0,1-2,.94,31.09,31.09,0,0,1-4.77.47c-.8,0-1.61.09-2.42.17a5.78,5.78,0,0,0-2.35.62,6.34,6.34,0,0,1,2.36-.4c.81,0,1.61,0,2.42,0a26,26,0,0,0,4.89-.23,4.57,4.57,0,0,0,2.39-1.05,2.49,2.49,0,0,0,.48-2.68,4.52,4.52,0,0,0-1.75-2,9.8,9.8,0,0,0-2.3-1.12l-.14.91a6.86,6.86,0,0,0,3.4-.8,2.82,2.82,0,0,0,1.23-1.46,3.21,3.21,0,0,0,.06-1.89,4.3,4.3,0,0,0-2.37-2.61,10.14,10.14,0,0,0-3.26-1l0,.82a4.09,4.09,0,0,0,2.77-2,3.41,3.41,0,0,0,.31-1.72,2.48,2.48,0,0,0-.75-1.58,6.08,6.08,0,0,0-3-1.33A14.36,14.36,0,0,0,554.38,197.83Z" style="fill:#263238"></path><path d="M570.34,200.9s-16.69-16.57-19.83-7.18c-.93,2.79-1.43,15.37,1.09,15.52,3.26.2,4.45-5,4.68-8.41,0,0,4.74,6.22,10.05,4.2A6.44,6.44,0,0,0,570.34,200.9Z" style="fill:#d3766a"></path><path d="M550.82,193a11.93,11.93,0,0,0-1,3.32,26.71,26.71,0,0,0-.37,3.46,39.81,39.81,0,0,0,.22,7,6.65,6.65,0,0,0,.48,1.78,2.45,2.45,0,0,0,.63.86,1.88,1.88,0,0,0,.49.31,1.94,1.94,0,0,0,.57.12,3,3,0,0,0,1.93-.63,5.42,5.42,0,0,0,1.24-1.43,10.38,10.38,0,0,0,1.24-3.38,24.13,24.13,0,0,0,.44-3.49l-.73.21a14.06,14.06,0,0,0,1.89,1.89,12.67,12.67,0,0,0,2.19,1.5,9.12,9.12,0,0,0,2.49.88,6.89,6.89,0,0,0,2.6,0,7.75,7.75,0,0,1-2.54-.28,9.61,9.61,0,0,1-2.3-1.06,12.46,12.46,0,0,1-2-1.54,13.38,13.38,0,0,1-1.67-1.87l-.61-.84-.12,1.05a24.72,24.72,0,0,1-.53,3.34,10.12,10.12,0,0,1-1.16,3.07,2.84,2.84,0,0,1-2.29,1.61c-.78,0-1.14-1.2-1.33-2.26s-.28-2.25-.36-3.39-.15-2.28-.15-3.43A21.92,21.92,0,0,1,550.82,193Z" style="fill:#263238"></path><path d="M614.06,217.61,598.7,203.92s10.83-14.26,17.06-20.59,14.81-9.67,10,5.89A184.26,184.26,0,0,1,614.06,217.61Z" style="fill:#7E57C2"></path><path d="M601.69,201.7c.81.62,1.58,1.32,2.33,2l2.39,2.16c1.56,1.42,3.12,2.85,4.66,4.28.89.82,1.74,1.69,2.65,2.47a0,0,0,1,1-.05.06c-.8-.7-1.64-1.33-2.45-2s-1.62-1.36-2.42-2.06c-1.59-1.39-6.41-5.91-7.18-6.81C601.58,201.75,601.63,201.66,601.69,201.7Z" style="fill:#263238"></path><path d="M625.73,189.22a184.86,184.86,0,0,1-11.68,28.39l-8-7.15,20.12-31.8C627.46,179.89,627.64,183.09,625.73,189.22Z" style="fill:#263238"></path><path d="M601.44,200.37,601,201l15,12.84.36-.75Zm1.67-2.13-.5.64,14.52,12.44c.12-.24.24-.5.35-.76Zm1.67-2.11-.49.63,14,12,.33-.76Z" style="fill:#030402;opacity:0.1"></path><path d="M667,236.65,611.25,238c-.23-.22,5.18-51.53,8.56-58a10.92,10.92,0,0,1,14.72-5.07c3.06,1.75,5.74,4.23,9.57,9.14C657.24,200.93,667.13,236.49,667,236.65Z" style="fill:#7E57C2"></path><path d="M665.77,232.17l-54.15,1.41c0,.28-.06.55-.08.81L666,233C665.93,232.71,665.85,232.45,665.77,232.17Zm-.83-2.68-53,1.38q0,.42-.09.81l53.39-1.39C665.11,230,665,229.76,664.94,229.49Zm-.85-2.67-51.9,1.35-.09.8,52.25-1.36C664.26,227.35,664.18,227.09,664.09,226.82Z" style="fill:#030402;opacity:0.1"></path><path d="M635.89,184.44c3.3,5.78,21.17,23.9,21.53,25.13s-19.49,16.83-23.07,20.64c-2.44,2.58,14.22,18.16,19.13,13.7,7.62-6.91,30.2-25.1,28.9-34.49S647.44,180.79,641,177.51,630.48,174.92,635.89,184.44Z" style="fill:#d3766a"></path><path d="M617.85,253.53a3.56,3.56,0,0,0,3.79,1.48,5.26,5.26,0,0,0,1.21,3.38c1.46,1.61,4.62,0,4.62,0a6.53,6.53,0,0,0,1.85,3.36c1.55,1.4,5,.26,5,.26a5.68,5.68,0,0,0,3.49,1.93c3.64.41,7.12-4,9.35-6.75s6-12.72,6.9-14.54l-17.64-14.51s-13.57,9.55-15.74,13.18C618.83,244.41,616.39,251.17,617.85,253.53Z" style="fill:#d3766a"></path><path d="M621.45,254.66c1.17-3.72,3.37-6.89,5.38-10.18,0-.07.16,0,.11.07-2,3.25-3.41,6.86-5.32,10.18A.09.09,0,0,1,621.45,254.66Z" style="fill:#263238"></path><path d="M627.29,258.17a10.33,10.33,0,0,1,1.34-2.29c.53-.77,1.08-1.54,1.63-2.3,1.12-1.52,2.26-3,3.46-4.47,0-.07.16,0,.11.07q-1.67,2.26-3.23,4.61c-.53.78-1,1.57-1.55,2.35a11.84,11.84,0,0,1-1.54,2.17A.14.14,0,0,1,627.29,258.17Z" style="fill:#263238"></path><path d="M634.34,262a7.09,7.09,0,0,1,1.32-2c.52-.68,1-1.36,1.55-2.05,1-1.37,2.06-2.75,3-4.16,0-.07.16,0,.11.07-1,1.44-2,2.89-3,4.32-.49.7-1,1.4-1.48,2.09A6.53,6.53,0,0,1,634.4,262S634.33,262,634.34,262Z" style="fill:#263238"></path><path d="M670.05,194.5,654,207.35s-12.25-13.06-17.45-20.26-7-16.22,7.48-8.85A184.74,184.74,0,0,1,670.05,194.5Z" style="fill:#7E57C2"></path><path d="M666.51,191.91l-15,12.76.55.6,15.13-12.88Zm-2.29-1.59-14.54,12.36.54.59,14.68-12.48Zm-2.32-1.57-14,11.92.54.6,14.17-12.06Z" style="fill:#030402;opacity:0.1"></path><path d="M640.54,193.65c.61.49,1.2,1,1.77,1.5l.86.77c-.27-.32-.54-.63-.8-.95-1-1.24-2-2.5-3-3.79,0-.05,0-.09.07-.05,2,2,3.88,4.14,5.76,6.28s3.74,4.15,5.59,6.25c1,1.18,3.1,3.6,3.12,3.58s.63-.36.69-.41.08,0,0,.06l-.79.61a30.84,30.84,0,0,1-3-3c-1-1-1.93-2.07-2.88-3.12-1.43-1.59-2.86-3.17-4.25-4.8-.53-.41-1-.88-1.54-1.31s-1.14-1-1.69-1.54C640.46,193.68,640.5,193.62,640.54,193.65Z" style="fill:#263238"></path><path d="M652.3,204c.74-.7,1.56-1.33,2.36-2l2.54-2c1.66-1.31,3.32-2.6,5-3.88.95-.74,1.95-1.44,2.88-2.2,0,0,.07,0,0,.06-.82.67-1.59,1.4-2.39,2.08s-1.62,1.37-2.43,2c-1.64,1.33-6.9,5.33-7.92,5.94C652.32,204.15,652.24,204.08,652.3,204Z" style="fill:#263238"></path><path d="M626.1,185.34c.84-.3,5.14-6.42,5.82-10.39a57.47,57.47,0,0,0-2.42-5.42c-.78-1.73-1.61-3.69-2.23-5.52-.13-.38-1.18.75-1.18.75l-2.17,1.39-7.21,4.58a30.7,30.7,0,0,1,3.52,6.67,4.6,4.6,0,0,1,.18.78.83.83,0,0,0,0,.13C620.69,179.82,624.72,185.81,626.1,185.34Z" style="fill:#d3766a"></path><path d="M620.41,178.18a.83.83,0,0,0,0,.13,8.29,8.29,0,0,0,1.21-.34c7.69-2.82,5.29-13,5.29-13l-3,1.18-7.21,4.58a30.7,30.7,0,0,1,3.52,6.67A4.6,4.6,0,0,1,620.41,178.18Z" style="fill:#263238"></path><path d="M624.85,150.49c2.42,3.81,3.53,16.42,1.31,19.91-3.21,5.06-10.13,7.37-14.85,3.13-4.57-4.12-5.73-20.58-3.1-23.92C612.09,144.68,621.29,144.87,624.85,150.49Z" style="fill:#d3766a"></path><path d="M615.12,160.91s.07,0,.07.07c0,.85.26,1.81,1,2,0,0,0,.05,0,.05C615.29,163,615,161.72,615.12,160.91Z" style="fill:#263238"></path><path d="M615.8,160c1.35-.23,1.71,2.5.46,2.71S614.66,160.14,615.8,160Z" style="fill:#263238"></path><path d="M610.24,161.69s-.06.05,0,.09c.14.84.16,1.83-.57,2.21,0,0,0,0,0,0C610.55,163.78,610.51,162.47,610.24,161.69Z" style="fill:#263238"></path><path d="M609.37,160.91c-1.37.08-1.11,2.82.16,2.75S610.52,160.85,609.37,160.91Z" style="fill:#263238"></path><path d="M616.71,158.56c-.39-.05-.73-.15-1.11-.23a1.85,1.85,0,0,1-1.08-.46.57.57,0,0,1,0-.71,1.46,1.46,0,0,1,1.42-.34,2.11,2.11,0,0,1,1.33.75A.62.62,0,0,1,616.71,158.56Z" style="fill:#263238"></path><path d="M608.14,159.68a9.47,9.47,0,0,0,1-.43,1.85,1.85,0,0,0,1-.64.57.57,0,0,0-.13-.69,1.42,1.42,0,0,0-1.46-.08,2.1,2.1,0,0,0-1.18,1A.63.63,0,0,0,608.14,159.68Z" style="fill:#263238"></path><path d="M616.94,168.65c-.17.22-.34.52-.64.59a2.3,2.3,0,0,1-.94-.09s-.05,0,0,0a1.15,1.15,0,0,0,1.13.31.9.9,0,0,0,.57-.83C617,168.63,617,168.62,616.94,168.65Z" style="fill:#263238"></path><path d="M615.72,166.24a2.91,2.91,0,0,1-1.75,1.53,4,4,0,0,1-1,.19h-.39a.22.22,0,0,1-.2-.17h0v-.08h0v-.07c-.1-.65-.17-1.65-.17-1.65-.22.15-1.36.86-1.39.51a43.71,43.71,0,0,1,0-8.86.08.08,0,0,1,.16,0c.3,2.72.13,5.48.39,8.21a5.37,5.37,0,0,1,1.31-.59c.09,0,.09,1.93.16,2.22v0a4,4,0,0,0,2.86-1.32C615.69,166.11,615.76,166.16,615.72,166.24Z" style="fill:#263238"></path><path d="M613.28,167.58a3.4,3.4,0,0,0,1.51.87,1.53,1.53,0,0,0,.94-.06c.65-.27.58-.89.39-1.4a3.78,3.78,0,0,0-.41-.78A4.44,4.44,0,0,1,613.28,167.58Z" style="fill:#263238"></path><path d="M614.79,168.45a1.53,1.53,0,0,0,.94-.06c.65-.27.58-.89.39-1.4A1.59,1.59,0,0,0,614.79,168.45Z" style="fill:#ff97b8"></path><path d="M626.53,160.65c-3.15.46-4.62-5.15-4.62-5.15s-5.52-.07-6.92-4c0,0-4.62,4-8.87,3.18s-4.08-5.53-3.78-6.57,2.8.43,2.8.43-.13-2.61.51-3,1.64,1.08,1.64,1.08a33.7,33.7,0,0,1,9.64-3.09c4.73-.58,7.77,3.81,7.77,3.81s2.6.16,3.68,1.8S628.53,160.35,626.53,160.65Z" style="fill:#263238"></path><path d="M614.94,150.7a6.93,6.93,0,0,0,.85,2.33,4.54,4.54,0,0,0,1.77,1.63,6.75,6.75,0,0,0,2.37.57c.41,0,.83,0,1.25,0s.83-.09,1.26-.12c-.41.12-.82.21-1.24.32s-.85.11-1.28.13a5.82,5.82,0,0,1-2.55-.51,4.32,4.32,0,0,1-1.85-1.84A5.21,5.21,0,0,1,614.94,150.7Z" style="fill:#263238"></path><path d="M624.83,148a7.87,7.87,0,0,0-2.38-3.26,6.27,6.27,0,0,0-3.71-1.33,6.81,6.81,0,0,0-1,0l-1,.13c-.67.12-1.32.34-2,.52s-1.29.48-1.91.77l-1.85.91c.58-.38,1.17-.73,1.76-1.09s1.26-.59,1.89-.89a10.61,10.61,0,0,1,4.11-.77,6.4,6.4,0,0,1,3.89,1.5A7.07,7.07,0,0,1,624.83,148Z" style="fill:#263238"></path><path d="M625.06,161.05s1.73-4.61,3.75-4.09,1.42,6.7-.46,8a2.19,2.19,0,0,1-3.13-.41Z" style="fill:#d3766a"></path><path d="M628.59,158.73a0,0,0,0,1,0,.05,5.54,5.54,0,0,0-1.91,4.05,1.21,1.21,0,0,1,1.67-.76s0,.08,0,.08A1.35,1.35,0,0,0,627,163a6.13,6.13,0,0,0-.38,1.33c0,.15-.29.14-.28,0v0C625.87,162.4,626.64,159.43,628.59,158.73Z" style="fill:#263238"></path><path d="M620.43,178.25l4.79,6.14,6.09-11.18,3.23,2.11S630.1,191.6,629.87,191l-4.54-5.14-2.94,5.31-2.62-10.49Z" style="fill:#455a64"></path><path d="M620.8,186c-.37-1.75-.8-3.5-1.09-5.26,0-.06.07-.12.11-.05.81,1.56,2.21,8.25,2.67,9.82v0c.12-.23,2.77-4.73,2.83-4.69.88.77,4.21,4.51,4.46,4.87.7-2.59,3.51-12.06,4.48-14.59,0-.07.14-.05.12,0-.51,2.66-4.17,15.38-4.28,15.38s-4.17-4.53-4.77-5.45c-.4.93-3,5.89-3,5.64A55.85,55.85,0,0,1,620.8,186Z" style="fill:#263238"></path></g><g id="freepik--character-1--inject-104"><path d="M188.51,418.53c-1.8.58-53.14.08-55.09-1.18-.74-.47-1.1-8-1.28-17,0-2,1.76-34,1.76-34l32.71.43-1.37,33.82s19.57,9,21.56,10.6S190.31,418,188.51,418.53Z" style="fill:#f7a9a0"></path><path d="M188.51,418.53c-1.8.58-53.14.08-55.09-1.18-.74-.47-1.1-8-1.29-17,0-.39.07-2,.18-4.39l33.16.57-.23,4.06s19.57,9,21.56,10.59S190.31,418,188.51,418.53Z" style="fill:#ebebeb"></path><path d="M188.73,418.61c-1.8.59-53.32.14-55.27-1.12-.75-.47-1.52-8.09-1.32-17.14l33.22.27s19.65,9,21.65,10.61S190.54,418,188.73,418.61Z" style="fill:#7E57C2"></path><path d="M188,416.55c-8.63-.29-43.48-.64-52-.27-.07,0-.07.05,0,.06,8.55.47,43.4.53,52,.35C188.19,416.68,188.19,416.55,188,416.55Z" style="fill:#263238"></path><path d="M183.71,409.34a7,7,0,0,0-5.19,2.07,6.75,6.75,0,0,0-2,4.59c0,.05.1.06.11,0a8,8,0,0,1,7.05-6.55C183.78,409.45,183.78,409.35,183.71,409.34Z" style="fill:#263238"></path><path d="M168.71,401.51c-3.46-.08-7.48,1.11-9.65,3.91-.08.11.07.23.17.18a48.27,48.27,0,0,1,9.53-3.67A.21.21,0,0,0,168.71,401.51Z" style="fill:#263238"></path><path d="M171.37,402.57c-3.46-.08-7.48,1.11-9.65,3.92-.09.11.07.22.17.17a47.62,47.62,0,0,1,9.53-3.66A.22.22,0,0,0,171.37,402.57Z" style="fill:#263238"></path><path d="M174,403.64c-3.46-.08-7.48,1.1-9.65,3.91-.09.11.07.23.17.18a47.65,47.65,0,0,1,9.53-3.67A.21.21,0,0,0,174,403.64Z" style="fill:#263238"></path><path d="M176.68,404.7c-3.45-.08-7.47,1.11-9.64,3.91-.09.11.07.23.17.18a47.62,47.62,0,0,1,9.53-3.66A.22.22,0,0,0,176.68,404.7Z" style="fill:#263238"></path><path d="M138.24,408.1c-3.88,0-3.92,6,0,6S142.13,408.12,138.24,408.1Z" style="fill:#fff"></path><path d="M172.52,392.32c-1.73-1.47-4-.07-5,1.43a18.1,18.1,0,0,0-3.22,8.81c0,.07.05.1.11.1a.42.42,0,0,0,.62.28c2.47-1.68,5.33-3.17,7.21-5.56C173.3,396,174.17,393.71,172.52,392.32Zm-4.3,7.31c-1.2.85-2.43,1.65-3.6,2.55a54.57,54.57,0,0,1,2-5.11,20.17,20.17,0,0,1,1.29-2.32c.76-1.13,4.18-4,4.49-.23C172.56,396.6,169.65,398.61,168.22,399.63Z" style="fill:#263238"></path><path d="M155.66,403.76c3,.49,6.12-.34,9.08-.77a.42.42,0,0,0,.26-.63.08.08,0,0,0,0-.14,18.17,18.17,0,0,0-8.32-4.33c-1.82-.36-4.4.1-4.69,2.36S153.91,403.48,155.66,403.76Zm-2.07-2c-2.31-3,2.14-3.19,3.47-2.86a18.49,18.49,0,0,1,2.51.84c1.71.68,3.29,1.58,4.92,2.42-1.47.12-2.91.37-4.37.55C158.37,402.94,154.87,403.43,153.59,401.78Z" style="fill:#263238"></path><path d="M129.06,244.64l0,2.23s5.24,48.67,6.12,66.52c.43,8.68-2.86,70.68-2.86,70.68l34.29.57s1.61-53.53.8-74.57c-.7-18.36-9.57-65.32-9.57-65.32l-.1-2.13-1.92-18.49H129.3Z" style="fill:#37474f"></path><path d="M135.21,319.23c0-2.68.06-4.71,0-5.84-.84-17-5.64-62-6.09-66.21,0-.13,0-.22,0-.27v0l0-2.23h0l.24-20.5h22.37Z" style="fill:#263238"></path><path d="M148.36,334.93V339l-14.25,9.33c.06-1.41.12-2.81.19-4.21Z" style="fill:#7E57C2"></path><path d="M148.36,342.93V347l-14.64,9.58c.07-1.39.14-2.8.2-4.22Z" style="fill:#7E57C2"></path><path d="M148.36,350.92V355l-15,9.84c.07-1.37.13-2.79.2-4.23Z" style="fill:#7E57C2"></path><path d="M86.55,414.67c-1.73-.75-39.87-35.12-40.5-37.35-.24-.85,4.44-6.69,10.3-13.6,1.26-1.49,23.84-24.33,23.84-24.33L104,362.53,81,385.81S89.72,405.5,90.14,408,88.29,415.43,86.55,414.67Z" style="fill:#f7a9a0"></path><path d="M86.56,414.68c-1.74-.76-39.88-35.13-40.51-37.36-.24-.85,4.44-6.69,10.29-13.6.26-.3,1.4-1.49,3-3.18l24.47,22.38L81,385.81S89.72,405.5,90.14,408,88.29,415.43,86.56,414.68Z" style="fill:#ebebeb"></path><path d="M86.66,414.89c-1.74-.76-40-35.21-40.68-37.45-.24-.84,4.23-7.06,10.37-13.72l24.72,22.21s8.76,19.75,9.19,22.28S88.4,415.64,86.66,414.89Z" style="fill:#7E57C2"></path><path d="M87.49,412.86c-6.28-5.93-32.17-29.27-38.82-34.66-.06,0-.09,0,0,0,6.1,6,32.17,29.14,38.77,34.72C87.54,413.08,87.62,413,87.49,412.86Z" style="fill:#263238"></path><path d="M89,404.61a7,7,0,0,0-5.26-1.88,6.68,6.68,0,0,0-4.51,2.13s0,.11.07.07a8,8,0,0,1,9.62-.24A.06.06,0,0,0,89,404.61Z" style="fill:#263238"></path><path d="M83,388.81c-2.54-2.35-6.33-4.12-9.82-3.46-.13,0-.1.22,0,.25a48,48,0,0,1,9.56,3.56A.21.21,0,0,0,83,388.81Z" style="fill:#263238"></path><path d="M84.27,391.37c-2.54-2.35-6.33-4.12-9.82-3.46-.14,0-.1.22,0,.25A47.49,47.49,0,0,1,84,391.72.21.21,0,0,0,84.27,391.37Z" style="fill:#263238"></path><path d="M85.56,393.92c-2.54-2.34-6.34-4.12-9.82-3.45-.14,0-.1.22,0,.25a47.72,47.72,0,0,1,9.57,3.56A.22.22,0,0,0,85.56,393.92Z" style="fill:#263238"></path><path d="M86.85,396.48c-2.54-2.35-6.34-4.12-9.82-3.45-.14,0-.1.21,0,.24a48.37,48.37,0,0,1,9.57,3.57A.22.22,0,0,0,86.85,396.48Z" style="fill:#263238"></path><path d="M55.79,373.58c-2.89-2.59-6.92,1.9-4,4.49S58.68,376.16,55.79,373.58Z" style="fill:#fff"></path><path d="M91.93,384.45c-.33-2.25-2.92-2.67-4.73-2.27A18.08,18.08,0,0,0,79,386.65a.08.08,0,0,0,0,.14.43.43,0,0,0,.27.63c3,.38,6.1,1.15,9.09.61C90.08,387.71,92.24,386.57,91.93,384.45Zm-8.07,2.62c-1.46-.15-2.91-.37-4.38-.47a52,52,0,0,1,4.87-2.5,18.59,18.59,0,0,1,2.5-.89c1.32-.35,5.78-.23,3.52,2.8C89.12,387.68,85.61,387.25,83.86,387.07Z" style="fill:#263238"></path><path d="M71.71,381.86c1.93,2.36,4.81,3.79,7.32,5.43a.42.42,0,0,0,.61-.29.1.1,0,0,0,.11-.11,18.23,18.23,0,0,0-3.38-8.75c-1.12-1.48-3.36-2.83-5.07-1.34S70.58,380.48,71.71,381.86ZM71.47,379c.25-3.77,3.72-1,4.5.15a20.13,20.13,0,0,1,1.32,2.3,54.56,54.56,0,0,1,2.09,5.07c-1.19-.88-2.43-1.65-3.64-2.49C74.29,383,71.34,381.08,71.47,379Z" style="fill:#263238"></path><path d="M154.32,224.11v0c-.13.62.09,10.51-2.12,19-1.6,6.2-3.26,11.65-4.2,12.21s-6.31,3-8.06,3.68c0,0-2.2,50-7.79,67.08-3.66,11.19-40.62,49.7-40.62,49.7l-25.2-23.15s28.41-31.91,34.46-40.79c3.4-5,8.09-60.23,8.09-60.23C107.44,234,115,224.11,115,224.11Z" style="fill:#37474f"></path><path d="M148.52,255.3a68.27,68.27,0,0,0-10.72,5,.12.12,0,0,0,.1.22c3.61-1.55,7.29-3,10.81-4.79A.24.24,0,0,0,148.52,255.3Z" style="fill:#263238"></path><path d="M110.75,320.86l-2.43,3.29-16.47-1c.94-1.13,1.85-2.22,2.7-3.27Z" style="fill:#7E57C2"></path><path d="M106,327.28l-2.43,3.29-17.1-1,2.77-3.26Z" style="fill:#7E57C2"></path><path d="M101.23,333.71,98.8,337,81,336l2.82-3.27Z" style="fill:#7E57C2"></path><path d="M142.56,150.79c-11.1,9.58-14.46,27.07-3.82,43.3,9.68,14.76,30,20.06,40.26,14.12,10.91-6.3,12.15-19.82,5.48-26.59-6.44-6.53-15.25-7.24-18.74-13.64-1.67-3.06-1.53-9-3.81-13.59C159.4,149.22,149.7,144.63,142.56,150.79Z" style="fill:#263238"></path><path d="M167.42,211.46a35.5,35.5,0,0,1-17.14-4.86,39.4,39.4,0,0,1-13-12.37,33.93,33.93,0,0,1-5.81-16.91A33.5,33.5,0,0,1,135.45,160a35,35,0,0,0-3.39,17.32,32.4,32.4,0,0,0,1.84,8.66,36.22,36.22,0,0,0,4,7.89,43.09,43.09,0,0,0,5.64,6.85,38.39,38.39,0,0,0,7,5.42,37.91,37.91,0,0,0,8.1,3.67A33.73,33.73,0,0,0,167.42,211.46Z" style="fill:#263238"></path><path d="M186.6,183a17.13,17.13,0,0,0-3.71-4.07,23.14,23.14,0,0,0-4.63-2.95q-2.5-1.2-4.95-2.56a23.25,23.25,0,0,1-4.6-3.23,14.84,14.84,0,0,1-1.93-2.1,10.9,10.9,0,0,1-1.32-2.53,46.41,46.41,0,0,1-1.45-5.4,21.4,21.4,0,0,0-1.85-5.17,15.08,15.08,0,0,0-3.4-4.31,14.39,14.39,0,0,1,3.7,4.14,21.42,21.42,0,0,1,2.08,5.2c.52,1.79.88,3.61,1.53,5.3a10.18,10.18,0,0,0,1.27,2.37,14.35,14.35,0,0,0,1.86,2c2.67,2.48,6.06,4.07,9.31,5.82a22.92,22.92,0,0,1,4.61,3.18A16.19,16.19,0,0,1,186.6,183Z" style="fill:#263238"></path><path d="M142.18,186.59c3.12,14.85,9.29,34.95,12.29,37.51,5.77,4.92,20.39,13.51,31.71,16.19,2.6.61,9.06-18.87,6.33-19.74-5.83-1.84-23.94-9.65-25.71-10.86-2.29-1.57-9.24-16.44-15.05-25.26C146.53,176.52,140.14,176.91,142.18,186.59Z" style="fill:#f7a9a0"></path><path d="M201.08,240.69c-1.34.27-1.21,1,1,2.08s11.72,3.61,10.56,6.87-14.58-.49-18.06-2.6a64.81,64.81,0,0,1-8.37-6.75C188.94,240.49,195.67,240.35,201.08,240.69Z" style="fill:#f7a9a0"></path><path d="M189.9,220.27c7.75.87,17.44,1.47,24.48,6.74a4.36,4.36,0,0,1,1.66,2.32c3.19,2.3,3.06,4.51,3.06,4.51,2.32,3.06,1.88,5.29,1.88,5.29s3.73,2.75,2.44,5.27c-1.44,2.84-6.39-1.57-10.59-2.34-9.64-1.75-23.82-1.54-26.65-1.77Z" style="fill:#f7a9a0"></path><path d="M204,233.13a62.66,62.66,0,0,1,8.35,2,63.56,63.56,0,0,1,8.51,4A.08.08,0,0,0,221,239,33.34,33.34,0,0,0,204,233C203.91,233,203.88,233.1,204,233.13Z" style="fill:#263238"></path><path d="M204.23,227.16c2.72.71,7.49,2,14.82,6.76a0,0,0,0,0,0,0A29.92,29.92,0,0,0,204.27,227C204.09,227,204.05,227.11,204.23,227.16Z" style="fill:#263238"></path><path d="M204.41,224a47.33,47.33,0,0,1,11.6,5.39s.06,0,0-.05c-4.6-3.41-6.66-4.13-11.61-5.5C204.26,223.74,204.23,223.9,204.41,224Z" style="fill:#263238"></path><path d="M158.22,230.23s-16.41,3-47-1.28c0,0,14-37.69,24.23-47.51,4.65-4.47,8.91-3.52,12.39-.31.87.81,11.39,18.31,12.09,23.35.61,4.45-3.23,9.15-3.23,9.15Z" style="fill:#7E57C2"></path><path d="M132.7,209.7v2.21l-16.58,4.86c.34-.82.7-1.66,1.07-2.53Z" style="fill:#263238"></path><path d="M132.7,214.9v2.21l-19,5.57,1-2.51Z" style="fill:#263238"></path><path d="M132.7,220.1v2.21l-21.3,6.24.95-2.49Z" style="fill:#263238"></path><path d="M152.85,211.17a29.24,29.24,0,0,0-7.53,1.26c-2.46.69-7.9,2.85-9.27,3.38,0,0,0,.06,0,.06a47,47,0,0,0,5.23-1.58c2.42-.82,4.85-1.56,7.32-2.2a31.93,31.93,0,0,1,4.24-.77A.08.08,0,0,0,152.85,211.17Z" style="fill:#263238"></path><path d="M155.11,212.47a23.51,23.51,0,0,0-7.92.7,0,0,0,0,0,0,.06c1.32-.16,2.62-.31,3.94-.42s2.65-.18,4-.27C155.16,212.54,155.16,212.47,155.11,212.47Z" style="fill:#263238"></path><path d="M140,188.58c-4.56,16.35-10.7,32.51-13,35.48-6.83,8.76-28.18,15.92-34.34,17.25-2.66.58-9.7-21.22-7.2-22.72,1.73-1,24.63-7.76,25.94-9,2.75-2.54,13.67-17,20.73-25C141.41,173.93,141.15,184.3,140,188.58Z" style="fill:#f7a9a0"></path><path d="M79.27,246.41c5.34-.55,15.81-5.94,17.84-8.21s-6.58-18.79-9.63-19.46-20.85,1-24.75,4.82S73.74,247,79.27,246.41Z" style="fill:#f7a9a0"></path><rect x="72.3" y="212.13" width="5.25" height="32.46" transform="translate(-95.13 58.53) rotate(-26.87)" style="fill:#7E57C2"></rect><rect x="72.3" y="212.13" width="5.25" height="32.46" transform="translate(-95.13 58.53) rotate(-26.87)" style="opacity:0.2"></rect><path d="M78.79,202.87c.33,6.52-6.27,9.76-6.7,14.09l-4.68,2.37c-3.74-2.21-10.25,1.19-15.32-2.93s-15-25.59,0-33.17S78.47,196.36,78.79,202.87Z" style="fill:#7E57C2"></path><path d="M78.79,202.87c.33,6.52-6.27,9.76-6.7,14.09l-4.68,2.37c-3.74-2.21-10.25,1.19-15.32-2.93s-15-25.59,0-33.17S78.47,196.36,78.79,202.87Z" style="opacity:0.2"></path><path d="M77.77,203.39c.41,6.48-5.94,9.59-6.29,13.88l-4.07,2.06c-3.66-2.25-10.37,1.25-15.36-2.91s-14.94-25.62-.52-32.93S77.36,196.92,77.77,203.39Z" style="fill:#7E57C2"></path><path d="M85.39,218.59s-22-8.18-21,1.67c.31,2.93,5,14.59,7.41,13.68,3-1.17,2-6.41.78-9.59,0,0,6.89,3.7,10.89-.33A6.46,6.46,0,0,0,85.39,218.59Z" style="fill:#f7a9a0"></path><path d="M64.33,219.44a11.83,11.83,0,0,0,.45,3.44,27.12,27.12,0,0,0,1.09,3.3A40.43,40.43,0,0,0,69,232.44a6.28,6.28,0,0,0,1.18,1.43,2.38,2.38,0,0,0,.92.52,1.69,1.69,0,0,0,.58.08,2,2,0,0,0,.56-.12A3,3,0,0,0,73.7,233a5.35,5.35,0,0,0,.54-1.82,10.51,10.51,0,0,0-.27-3.59,24.63,24.63,0,0,0-1-3.36l-.58.49a14.39,14.39,0,0,0,2.5,1,12.85,12.85,0,0,0,2.61.45,9,9,0,0,0,2.64-.22,6.92,6.92,0,0,0,2.38-1.07,7.67,7.67,0,0,1-2.44.79,8.94,8.94,0,0,1-2.53,0,12.2,12.2,0,0,1-2.46-.57,12.55,12.55,0,0,1-2.3-1l-.9-.51.32,1a24.06,24.06,0,0,1,.9,3.27,10.46,10.46,0,0,1,.22,3.28,2.85,2.85,0,0,1-1.43,2.4c-.7.34-1.54-.61-2.14-1.51A31.33,31.33,0,0,1,68,229c-.55-1-1.08-2-1.56-3.06A22.19,22.19,0,0,1,64.33,219.44Z" style="fill:#263238"></path><path d="M69.92,218.85c2.57,1.22-.34,3.55-.34,3.55s5-2.35,7.16-.08-1.53,4.9-1.78,5.1c.26-.13,4.9-2.17,6.84.34s-2.07,4.7-2.33,4.83c.28,0,4.08-.46,5.12,1.79,1.79,3.85-7.89,5.2-9.84,8,0,0,4.42,3.86,4.52,4S70.1,247.88,66.43,245a3,3,0,0,1-.92-3.6s-2.9.8-4.49-1.13c-.82-1,0-3.17,0-3.17a3.73,3.73,0,0,1-3.66-1.26c-1-1.44,0-3.41,0-3.41s-2.5-.52-3.09-2.34C53.08,226.46,64.41,216.26,69.92,218.85Z" style="fill:#f7a9a0"></path><path d="M57.5,232.13s-.09,0-.06,0a26.35,26.35,0,0,1,12.29-9.82c.16-.06.32.18.16.27A54.22,54.22,0,0,0,57.5,232.13Z" style="fill:#263238"></path><path d="M61,237.15s-.12,0-.08-.07A24.76,24.76,0,0,1,75,227.2c.2,0,.42.11.2.18C71.35,228.59,64.35,233.55,61,237.15Z" style="fill:#263238"></path><path d="M79.91,232.64c-5.58,1.52-10.1,4.69-14.29,8.6-.05,0-.12,0-.08-.09,1.52-2.47,4.45-4.69,6.87-6.22a15.21,15.21,0,0,1,7.45-2.49C80,232.44,80,232.61,79.91,232.64Z" style="fill:#263238"></path><path d="M69.58,222.4a17.7,17.7,0,0,1,3.08-.81,5.83,5.83,0,0,1,3,.18,1.88,1.88,0,0,1,1,.93,2.78,2.78,0,0,1,.27,1.38,3.41,3.41,0,0,1-1.48,2.34l-1.88,1.37,2.24-.63a9.41,9.41,0,0,1,3.07-.37,3.41,3.41,0,0,1,2.56,1.1,2,2,0,0,1,.12,2.45,5.92,5.92,0,0,1-2.31,1.83l-2.49,1.2,2.73-.32a8.79,8.79,0,0,1,2.29,0,3.65,3.65,0,0,1,2,.81,1.75,1.75,0,0,1,.53,1.77,3.94,3.94,0,0,1-1.4,1.67,31.66,31.66,0,0,1-4.14,2.39c-.72.38-1.44.75-2.14,1.16a5.71,5.71,0,0,0-1.88,1.53,6.33,6.33,0,0,1,2-1.33c.73-.35,1.47-.67,2.21-1a25.26,25.26,0,0,0,4.36-2.23A4.46,4.46,0,0,0,85,235.92a2.47,2.47,0,0,0-.67-2.64A4.54,4.54,0,0,0,82,232.2a9.81,9.81,0,0,0-2.54-.06l.24.88a6.74,6.74,0,0,0,2.76-2.14,2.8,2.8,0,0,0,.53-1.84,3.24,3.24,0,0,0-.73-1.74A4.34,4.34,0,0,0,79,225.9a10.33,10.33,0,0,0-3.37.47l.36.73a4,4,0,0,0,1.68-3,3.43,3.43,0,0,0-.42-1.7,2.52,2.52,0,0,0-1.34-1.13,6,6,0,0,0-3.28,0A13.94,13.94,0,0,0,69.58,222.4Z" style="fill:#263238"></path><path d="M140.22,179.17c0,.85,2.62,7,6.34,7.68,1.21.22,2.73-6.35,2.73-6.35l.22-.45,3.12-6.43-6.77-7-1-.95s-.74,1.81-1.63,4.08c0,.11-.09.21-.13.33s-.11.24-.15.36c-.14.34-.28.69-.41,1s-.2.52-.3.8l-.3.83A47.66,47.66,0,0,0,140.22,179.17Z" style="fill:#f7a9a0"></path><path d="M143.24,169.76a14.36,14.36,0,0,0,6.27,10.29l3.12-6.43-6.77-7-1-.95S144.13,167.49,143.24,169.76Z" style="fill:#263238"></path><path d="M164.88,164.88c-.26,12.53-7.79,13.79-10.5,13.73-2.45-.06-10.8-.55-11.83-13s4.87-16.34,10.49-16.51S165.15,152.34,164.88,164.88Z" style="fill:#f7a9a0"></path><path d="M163,162.5a8.67,8.67,0,0,1-.84-.22,1.36,1.36,0,0,1-.81-.38.45.45,0,0,1,0-.54,1.14,1.14,0,0,1,1.11-.22,1.66,1.66,0,0,1,1,.62A.48.48,0,0,1,163,162.5Z" style="fill:#263238"></path><path d="M154.92,162.34c.29,0,.56-.1.85-.15a1.36,1.36,0,0,0,.85-.31.45.45,0,0,0,0-.54,1.12,1.12,0,0,0-1.08-.31,1.64,1.64,0,0,0-1,.53A.48.48,0,0,0,154.92,162.34Z" style="fill:#263238"></path><path d="M156.64,165.17s-.07,0-.07.08c0,.85-.12,1.83-.9,2.1,0,0,0,.05,0,0C156.62,167.28,156.79,166,156.64,165.17Z" style="fill:#263238"></path><path d="M155.89,164.27c-1.37-.14-1.53,2.61-.26,2.74S157,164.37,155.89,164.27Z" style="fill:#263238"></path><path d="M155.35,164.38c-.25.14-.51.4-.8.41s-.57-.29-.77-.58c0,0-.05,0-.05,0,0,.53.13,1.08.69,1.19s.91-.34,1.07-.86C155.52,164.47,155.45,164.32,155.35,164.38Z" style="fill:#263238"></path><path d="M161,165.36s.06,0,.06.08c-.09.85,0,1.84.71,2.17,0,0,0,0,0,0C160.84,167.46,160.79,166.15,161,165.36Z" style="fill:#263238"></path><path d="M161.83,164.52c1.37,0,1.3,2.74,0,2.75S160.67,164.53,161.83,164.52Z" style="fill:#263238"></path><path d="M162.39,164.72c.22.15.43.42.69.44s.53-.26.73-.54c0,0,0,0,0,0,0,.53-.19,1.07-.7,1.16s-.79-.38-.9-.91C162.23,164.8,162.31,164.66,162.39,164.72Z" style="fill:#263238"></path><path d="M156.12,172.25c.18.22.36.52.66.57a2.3,2.3,0,0,0,.94-.11s.05,0,0,0a1.14,1.14,0,0,1-1.13.35.9.9,0,0,1-.58-.82C156,172.23,156.09,172.22,156.12,172.25Z" style="fill:#263238"></path><path d="M159.83,169.34s.12,1.28.09,1.88c0,.06-.15.08-.36.08h0a2.85,2.85,0,0,1-2.72-1.2c0-.06,0-.12.09-.08a4.3,4.3,0,0,0,2.57.87c.05-.16-.27-2.19-.17-2.19a5.49,5.49,0,0,1,1.35.37c-.17-2.67-.76-5.3-.89-8,0-.1.14-.12.16,0a43.06,43.06,0,0,1,1.32,8.55C161.28,170,160.07,169.45,159.83,169.34Z" style="fill:#263238"></path><path d="M159.49,171a3.53,3.53,0,0,1-1.37,1.11,1.58,1.58,0,0,1-.94.08c-.7-.16-.73-.79-.62-1.33a3.65,3.65,0,0,1,.29-.84A4.5,4.5,0,0,0,159.49,171Z" style="fill:#263238"></path><path d="M158.12,172.12a1.58,1.58,0,0,1-.94.08c-.7-.16-.73-.79-.62-1.33A1.61,1.61,0,0,1,158.12,172.12Z" style="fill:#ff99ba"></path><path d="M143,166.45a5.06,5.06,0,0,0,3.25-3.83c10.61-1.76,13.2-8.86,13.2-8.86,2.82,5.27,4.78,6,5.2,6.76,0,0,.21-5-1.92-8.4a10.21,10.21,0,0,0-11.68-4.46c-3.2.88-5.55,4.09-5.55,4.09s-3.47.87-4.51,3.91C139.26,160.77,143,166.45,143,166.45Z" style="fill:#263238"></path><path d="M159.57,153.31a8.79,8.79,0,0,1-1.6,4,11.3,11.3,0,0,1-3.17,2.95l-1,.52c-.32.17-.67.29-1,.43a13.76,13.76,0,0,1-2.06.67c-.7.16-1.42.25-2.13.38s-1.43.09-2.15.11c.71-.12,1.42-.21,2.12-.32s1.39-.3,2.07-.5a15.88,15.88,0,0,0,3.88-1.66,11.55,11.55,0,0,0,3.13-2.78A10.12,10.12,0,0,0,159.57,153.31Z" style="fill:#263238"></path><path d="M142.43,170.19a3,3,0,0,0,.56.21,2.14,2.14,0,0,0,.59.08,1.72,1.72,0,0,0,.74-.16,2,2,0,0,0,.51-.31,2.45,2.45,0,0,0,.55-.65l-.33-3.4s-2.31-4.19-4.17-3.41S140.44,169.19,142.43,170.19Z" style="fill:#f7a9a0"></path><path d="M141.33,164.22s-.05,0,0,.05a5.4,5.4,0,0,1,2.4,3.63,1.18,1.18,0,0,0-1.71-.5s0,.09,0,.08a1.31,1.31,0,0,1,1.38.61,6.53,6.53,0,0,1,.56,1.23c.05.13.29.09.26-.07v0C144.46,167.37,143.3,164.62,141.33,164.22Z" style="fill:#263238"></path><path d="M142.57,169.51a.58.58,0,0,0,1.16-.1.59.59,0,0,0-.63-.53A.58.58,0,0,0,142.57,169.51Z" style="fill:#fff"></path></g><g id="freepik--table-tennis--inject-104"><polygon points="195.98 419.49 192.04 419.49 207.86 308.99 215.76 308.99 195.98 419.49" style="fill:#a6a6a6"></polygon><polygon points="554.02 419.49 557.96 419.49 542.14 308.99 534.24 308.99 554.02 419.49" style="fill:#a6a6a6"></polygon><rect x="198.71" y="390.51" width="352.71" height="3.19" style="fill:#a6a6a6"></rect><polygon points="591.61 296.87 156.41 296.87 200.94 256.5 547.09 256.5 591.61 296.87" style="fill:#455a64"></polygon><path d="M593.09,297.77H154.94l46.5-42.17H546.59l.28.26Zm-433-2H587.9L545.82,257.6H202.21Z" style="fill:#fff"></path><rect x="156.41" y="296.87" width="435.2" height="12.11" style="fill:#263238"></rect><rect x="182.74" y="274.03" width="383.83" height="1" style="fill:#fff"></rect><rect x="363.79" y="291.4" width="20.44" height="8.91" style="fill:#263238"></rect><rect x="371.74" y="245.13" width="4.46" height="47.42" style="fill:#263238"></rect><polygon points="167.54 437.04 162.97 437.04 181.31 308.99 190.46 308.99 167.54 437.04" style="fill:#c7c7c7"></polygon><polygon points="582.46 437.04 587.03 437.04 568.69 308.99 559.54 308.99 582.46 437.04" style="fill:#c7c7c7"></polygon><rect x="170.71" y="403.46" width="408.75" height="3.7" style="fill:#c7c7c7"></rect></g><g id="freepik--Lines--inject-104"><path d="M336,226.25a71.42,71.42,0,0,1,6.08-5.45c2.16-1.67,4.36-3.29,6.63-4.79a104.59,104.59,0,0,1,29.66-13.59c2.61-.79,5.29-1.33,8-1.92,1.32-.31,2.68-.46,4-.67l4-.58a143.48,143.48,0,0,0-15.8,3.91,126.92,126.92,0,0,0-29.46,13.49A101,101,0,0,0,336,226.25Z" style="fill:#a6a6a6"></path><path d="M343,224.63a107.65,107.65,0,0,1,18.9-10.5,161.86,161.86,0,0,1,20.38-7.36c1.73-.5,3.5-.9,5.24-1.36l2.63-.66,2.65-.56,5.31-1.09c1.78-.3,3.57-.57,5.35-.83s3.57-.56,5.37-.71l5.39-.55,1.34-.13,1.36-.07,2.7-.12,5.4-.23c-3.59.38-7.18.58-10.75,1s-7.16.83-10.69,1.54l-5.31.92L393,205.08l-2.63.58-2.61.68c-1.74.47-3.49.88-5.21,1.39a176.79,176.79,0,0,0-20.34,7.1l-2.49,1L357.24,217c-1.65.73-3.25,1.55-4.86,2.35A101.07,101.07,0,0,0,343,224.63Z" style="fill:#a6a6a6"></path><path d="M339.56,230.2c1.94-1.34,4-2.51,6-3.68s4.18-2.19,6.32-3.19a126.14,126.14,0,0,1,13.14-5.24,123.89,123.89,0,0,1,13.66-3.66c2.3-.51,4.63-.86,7-1.23,1.16-.19,2.34-.29,3.51-.42l3.51-.34c-4.63.81-9.26,1.59-13.81,2.74s-9.08,2.36-13.52,3.86-8.83,3.15-13.14,5A134.43,134.43,0,0,0,339.56,230.2Z" style="fill:#a6a6a6"></path></g><g id="freepik--Ball--inject-104"><circle cx="330.83" cy="234.48" r="5.83" style="fill:#7E57C2"></circle></g></svg>